#!OML:ASF H:\ManfredETheater\Project 1\Capture day 1\Session 1\subject.ASF
:FULLY-SPECIFIED
:DEGREES
185
root 1.25423 17.0413 33.2174 -168.03 -5.34518 177.925
lowerback 4.8796 -0.805476 -1.6779
upperback -1.3655 -1.13227 1.66884
thorax -4.0826 -0.504989 2.76279
lowerneck -18.1954 -1.50432 -2.66907
upperneck 20.3805 -1.72853 0.218532
head 9.46796 -1.12223 0.264757
rclavicle -2.14687e-014 -3.97569e-015
rhumerus -35.4497 -3.11695 -82.3899
rradius 35.739
rwrist -1.07135
rhand -18.5319 -11.8649
rfingers 7.12502
rthumb 7.75694 -41.7026
lclavicle -2.14687e-014 -3.97569e-015
lhumerus -32.0485 0.243278 91.9131
lradius 31.9096
lwrist -13.225
lhand -11.1672 9.33146
lfingers 7.12502
lthumb 14.8595 38.7786
rfemur -18.3762 -2.02502 14.2662
rtibia 36.1555
rfoot -24.3516 -13.9916
rtoes -0.0820569
lfemur -21.5288 -5.64407 -20.8487
ltibia 37.9705
lfoot -24.3909 3.33897
ltoes 1.17097
186
root 1.23445 17.0362 33.1814 -167.907 -5.35181 177.766
lowerback 4.9909 -0.800249 -1.82343
upperback -1.3323 -1.13556 1.64457
thorax -4.10877 -0.502568 2.82173
lowerneck -18.1274 -1.53291 -2.6441
upperneck 20.2249 -1.75775 0.170334
head 9.4009 -1.13534 0.241759
rclavicle -1.45113e-014 -2.38542e-015
rhumerus -35.5399 -3.07946 -82.2982
rradius 36.0955
rwrist -1.24965
rhand -18.5456 -11.8947
rfingers 7.12502
rthumb 7.74374 -41.7329
lclavicle -1.45113e-014 -2.38542e-015
lhumerus -32.05 0.196592 91.9619
lradius 31.9521
lwrist -13.1887
lhand -11.1741 9.31567
lfingers 7.12502
lthumb 14.8528 38.7633
rfemur -18.6467 -2.15405 14.06
rtibia 36.6909
rfoot -24.3992 -14.0637
rtoes -0.641637
lfemur -21.5223 -5.71322 -21.0882
ltibia 37.9773
lfoot -24.4041 3.41382
ltoes 0.939784
187
root 1.21392 17.031 33.145 -167.784 -5.34433 177.596
lowerback 5.09651 -0.792943 -1.97859
upperback -1.29413 -1.13715 1.61526
thorax -4.12656 -0.499295 2.88054
lowerneck -18.0828 -1.56126 -2.61529
upperneck 20.0827 -1.78737 0.123456
head 9.34283 -1.14825 0.218376
rclavicle -1.97791e-014 2.14687e-014
rhumerus -35.6143 -3.05489 -82.2031
rradius 36.4528
rwrist -1.42196
rhand -18.5584 -11.9327
rfingers 7.12502
rthumb 7.73144 -41.7713
lclavicle -1.97791e-014 2.14687e-014
lhumerus -32.0403 0.148574 92.007
lradius 31.9886
lwrist -13.1505
lhand -11.1861 9.29709
lfingers 7.12502
lthumb 14.8412 38.7456
rfemur -18.9856 -2.32308 13.8395
rtibia 37.3515
rfoot -24.4041 -14.0955
rtoes -1.3204
lfemur -21.5013 -5.7604 -21.345
ltibia 37.9683
lfoot -24.417 3.48108
ltoes 0.699816
188
root 1.19268 17.0261 33.1085 -167.662 -5.31794 177.425
lowerback 5.20196 -0.783571 -2.13867
upperback -1.26033 -1.13679 1.58586
thorax -4.14885 -0.494871 2.94196
lowerneck -18.0444 -1.58474 -2.58595
upperneck 19.9544 -1.81129 0.0773345
head 9.29077 -1.15881 0.195835
rclavicle -2.93207e-014 1.51076e-014
rhumerus -35.6854 -3.03361 -82.1043
rradius 36.8122
rwrist -1.59137
rhand -18.5753 -11.9493
rfingers 7.12502
rthumb 7.71512 -41.7885
lclavicle -2.93207e-014 1.51076e-014
lhumerus -32.0324 0.106804 92.0499
lradius 32.0157
lwrist -13.1129
lhand -11.2058 9.27599
lfingers 7.12502
lthumb 14.8222 38.7259
rfemur -19.4052 -2.53201 13.6135
rtibia 38.1491
rfoot -24.3559 -14.0769
rtoes -2.10056
lfemur -21.4699 -5.77907 -21.6102
ltibia 37.9444
lfoot -24.4303 3.53844
ltoes 0.467785
189
root 1.17057 17.0215 33.0718 -167.541 -5.26434 177.262
lowerback 5.30852 -0.770595 -2.29457
upperback -1.23251 -1.1318 1.55912
thorax -4.17833 -0.488119 3.00353
lowerneck -18.0054 -1.60184 -2.55838
upperneck 19.8383 -1.82709 0.0316663
head 9.24284 -1.16615 0.174764
rclavicle -3.97569e-016 2.06736e-014
rhumerus -35.7543 -3.00877 -82.0026
rradius 37.1694
rwrist -1.76016
rhand -18.598 -11.9519
rfingers 7.12502
rthumb 7.6932 -41.792
lclavicle -3.97569e-016 2.06736e-014
lhumerus -32.0293 0.0808229 92.0886
lradius 32.0313
lwrist -13.0834
lhand -11.2253 9.25358
lfingers 7.12502
lthumb 14.8035 38.7048
rfemur -19.9129 -2.78425 13.3878
rtibia 39.0917
rfoot -24.2295 -13.9883
rtoes -2.98954
lfemur -21.4267 -5.76899 -21.8756
ltibia 37.9062
lfoot -24.4431 3.59332
ltoes 0.239686
190
root 1.14776 17.0176 33.0353 -167.423 -5.18513 177.117
lowerback 5.41719 -0.754729 -2.43702
upperback -1.20907 -1.12244 1.53854
thorax -4.21401 -0.479392 3.06367
lowerneck -17.9679 -1.61073 -2.53284
upperneck 19.7325 -1.83212 -0.0121799
head 9.19868 -1.16879 0.156011
rclavicle 2.28602e-014 -2.14687e-014
rhumerus -35.8122 -2.98286 -81.8987
rradius 37.518
rwrist -1.92376
rhand -18.6208 -11.942
rfingers 7.12502
rthumb 7.67112 -41.7829
lclavicle 2.28602e-014 -2.14687e-014
lhumerus -32.0311 0.0720717 92.1229
lradius 32.0381
lwrist -13.0595
lhand -11.254 9.23909
lfingers 7.12502
lthumb 14.7758 38.6924
rfemur -20.514 -3.07204 13.174
rtibia 40.184
rfoot -24.0162 -13.8275
rtoes -3.94629
lfemur -21.3738 -5.73199 -22.1278
ltibia 37.856
lfoot -24.455 3.64493
ltoes 0.0248479
191
root 1.12411 17.0144 32.9986 -167.313 -5.07622 176.996
lowerback 5.53132 -0.733553 -2.56003
upperback -1.18769 -1.10508 1.52416
thorax -4.25577 -0.467051 3.11872
lowerneck -17.9356 -1.61275 -2.50692
upperneck 19.6346 -1.82796 -0.0563076
head 9.15816 -1.16735 0.13823
rclavicle -1.98785e-015 1.59028e-015
rhumerus -35.864 -2.95599 -81.7923
rradius 37.8646
rwrist -2.0885
rhand -18.6496 -11.9273
rfingers 7.12502
rthumb 7.64341 -41.7692
lclavicle -1.98785e-015 1.59028e-015
lhumerus -32.0333 0.081197 92.1517
lradius 32.0303
lwrist -13.053
lhand -11.2781 9.22915
lfingers 7.12502
lthumb 14.7525 38.6842
rfemur -21.2057 -3.38442 12.9735
rtibia 41.4253
rfoot -23.7069 -13.5912
rtoes -4.91447
lfemur -21.3069 -5.67823 -22.363
ltibia 37.7961
lfoot -24.4665 3.70516
ltoes -0.171051
192
root 1.09989 17.012 32.9618 -167.211 -4.94268 176.896
lowerback 5.6535 -0.709798 -2.66835
upperback -1.17023 -1.08367 1.51635
thorax -4.30667 -0.452824 3.17217
lowerneck -17.9038 -1.60539 -2.48415
upperneck 19.5451 -1.81198 -0.0939947
head 9.12063 -1.16019 0.124656
rclavicle 4.77083e-015 -2.38542e-015
rhumerus -35.9126 -2.92673 -81.6832
rradius 38.2017
rwrist -2.24132
rhand -18.6894 -11.8987
rfingers 7.12502
rthumb 7.60493 -41.742
lclavicle 4.77083e-015 -2.38542e-015
lhumerus -32.0397 0.110292 92.1736
lradius 32.0093
lwrist -13.0572
lhand -11.3036 9.2262
lfingers 7.12502
lthumb 14.728 38.683
rfemur -21.9856 -3.71336 12.784
rtibia 42.8101
rfoot -23.2968 -13.2825
rtoes -5.78181
lfemur -21.2258 -5.61634 -22.5817
ltibia 37.7283
lfoot -24.4778 3.77457
ltoes -0.337422
193
root 1.07527 17.01 32.9247 -167.119 -4.78478 176.81
lowerback 5.77714 -0.684159 -2.77068
upperback -1.15143 -1.05958 1.51336
thorax -4.35728 -0.437406 3.22698
lowerneck -17.8798 -1.58974 -2.46428
upperneck 19.462 -1.78524 -0.124549
head 9.08673 -1.14749 0.115306
rclavicle -8.54774e-015 -2.14687e-014
rhumerus -35.9484 -2.89739 -81.5729
rradius 38.5273
rwrist -2.37804
rhand -18.7312 -11.8732
rfingers 7.12502
rthumb 7.56464 -41.7179
lclavicle -8.54774e-015 -2.14687e-014
lhumerus -32.0453 0.158617 92.1876
lradius 31.9752
lwrist -13.0793
lhand -11.3283 9.22802
lfingers 7.12502
lthumb 14.7042 38.6866
rfemur -22.8501 -4.04624 12.5962
rtibia 44.3283
rfoot -22.7813 -12.9104
rtoes -6.45556
lfemur -21.1302 -5.5564 -22.7909
ltibia 37.6536
lfoot -24.4874 3.86279
ltoes -0.489515
194
root 1.0506 17.0082 32.8871 -167.043 -4.60589 176.731
lowerback 5.90553 -0.656837 -2.87553
upperback -1.12409 -1.03382 1.5114
thorax -4.40185 -0.421329 3.28406
lowerneck -17.8717 -1.56767 -2.44279
upperneck 19.3818 -1.75059 -0.148378
head 9.0567 -1.13002 0.108889
rclavicle -6.75868e-015 2.78299e-014
rhumerus -35.965 -2.87653 -81.4636
rradius 38.8411
rwrist -2.49573
rhand -18.7766 -11.8336
rfingers 7.12502
rthumb 7.52081 -41.6798
lclavicle -6.75868e-015 2.78299e-014
lhumerus -32.0426 0.215435 92.1924
lradius 31.932
lwrist -13.105
lhand -11.3499 9.24045
lfingers 7.12502
lthumb 14.6834 38.7005
rfemur -23.7844 -4.36939 12.4026
rtibia 45.9644
rfoot -22.1532 -12.5005
rtoes -6.87359
lfemur -21.0092 -5.50396 -22.9984
ltibia 37.5713
lfoot -24.4949 3.97118
ltoes -0.62851
195
root 1.02624 17.0062 32.8489 -166.981 -4.4136 176.642
lowerback 6.0358 -0.632412 -3.0021
upperback -1.09408 -1.01392 1.50961
thorax -4.44401 -0.407662 3.35409
lowerneck -17.8555 -1.53774 -2.42298
upperneck 19.2984 -1.70674 -0.164346
head 9.02411 -1.10752 0.106698
rclavicle 5.96354e-015 -2.06736e-014
rhumerus -35.9738 -2.85847 -81.3541
rradius 39.1426
rwrist -2.59053
rhand -18.83 -11.7955
rfingers 7.12502
rthumb 7.46929 -41.6436
lclavicle 5.96354e-015 -2.06736e-014
lhumerus -32.0481 0.283051 92.1888
lradius 31.8839
lwrist -13.1363
lhand -11.3719 9.25378
lfingers 7.12502
lthumb 14.6623 38.7154
rfemur -24.7777 -4.68559 12.1914
rtibia 47.6993
rfoot -21.4083 -12.0753
rtoes -6.9749
lfemur -20.8646 -5.4553 -23.218
ltibia 37.4808
lfoot -24.5016 4.08787
ltoes -0.762388
